<svg id="visual" viewBox="0 0 900 450" width="900" height="450" xmlns="http://www.w3.org/2000/svg" xmlns:xlink="http://www.w3.org/1999/xlink" version="1.1"><path d="M0 180L25 170.2C50 160.3 100 140.7 150 141.7C200 142.7 250 164.3 300 177.5C350 190.7 400 195.3 450 195.7C500 196 550 192 600 175.3C650 158.7 700 129.3 750 129.3C800 129.3 850 158.7 875 173.3L900 188L900 0L875 0C850 0 800 0 750 0C700 0 650 0 600 0C550 0 500 0 450 0C400 0 350 0 300 0C250 0 200 0 150 0C100 0 50 0 25 0L0 0Z" fill="#00923F" stroke-linecap="round" stroke-linejoin="miter"></path></svg>