<svg id="visual" viewBox="0 0 900 600" width="900" height="600" xmlns="http://www.w3.org/2000/svg" xmlns:xlink="http://www.w3.org/1999/xlink" version="1.1"><path d="M0 31L10 43C20 55 40 79 60 78C80 77 100 51 120 43C140 35 160 45 180 46C200 47 220 39 240 31C260 23 280 15 300 12C320 9 340 11 360 21C380 31 400 49 420 52C440 55 460 43 480 38C500 33 520 35 540 33C560 31 580 25 600 28C620 31 640 43 660 50C680 57 700 59 720 59C740 59 760 57 780 55C800 53 820 51 840 55C860 59 880 69 890 74L900 79L900 0L890 0C880 0 860 0 840 0C820 0 800 0 780 0C760 0 740 0 720 0C700 0 680 0 660 0C640 0 620 0 600 0C580 0 560 0 540 0C520 0 500 0 480 0C460 0 440 0 420 0C400 0 380 0 360 0C340 0 320 0 300 0C280 0 260 0 240 0C220 0 200 0 180 0C160 0 140 0 120 0C100 0 80 0 60 0C40 0 20 0 10 0L0 0Z" fill="#9abbec"></path><path d="M0 37L10 53C20 69 40 101 60 99C80 97 100 61 120 48C140 35 160 45 180 49C200 53 220 51 240 46C260 41 280 33 300 33C320 33 340 41 360 50C380 59 400 69 420 68C440 67 460 55 480 53C500 51 520 59 540 58C560 57 580 47 600 53C620 59 640 81 660 85C680 89 700 75 720 67C740 59 760 57 780 59C800 61 820 67 840 72C860 77 880 81 890 83L900 85L900 77L890 72C880 67 860 57 840 53C820 49 800 51 780 53C760 55 740 57 720 57C700 57 680 55 660 48C640 41 620 29 600 26C580 23 560 29 540 31C520 33 500 31 480 36C460 41 440 53 420 50C400 47 380 29 360 19C340 9 320 7 300 10C280 13 260 21 240 29C220 37 200 45 180 44C160 43 140 33 120 41C100 49 80 75 60 76C40 77 20 53 10 41L0 29Z" fill="#8db3ed"></path><path d="M0 145L10 151C20 157 40 169 60 172C80 175 100 169 120 168C140 167 160 171 180 161C200 151 220 127 240 128C260 129 280 155 300 170C320 185 340 189 360 177C380 165 400 137 420 131C440 125 460 141 480 163C500 185 520 213 540 215C560 217 580 193 600 190C620 187 640 205 660 209C680 213 700 203 720 181C740 159 760 125 780 116C800 107 820 123 840 132C860 141 880 143 890 144L900 145L900 83L890 81C880 79 860 75 840 70C820 65 800 59 780 57C760 55 740 57 720 65C700 73 680 87 660 83C640 79 620 57 600 51C580 45 560 55 540 56C520 57 500 49 480 51C460 53 440 65 420 66C400 67 380 57 360 48C340 39 320 31 300 31C280 31 260 39 240 44C220 49 200 51 180 47C160 43 140 33 120 46C100 59 80 95 60 97C40 99 20 67 10 51L0 35Z" fill="#81aaef"></path><path d="M0 169L10 171C20 173 40 177 60 177C80 177 100 173 120 178C140 183 160 197 180 192C200 187 220 163 240 162C260 161 280 183 300 192C320 201 340 197 360 187C380 177 400 161 420 160C440 159 460 173 480 196C500 219 520 251 540 251C560 251 580 219 600 212C620 205 640 223 660 232C680 241 700 241 720 224C740 207 760 173 780 158C800 143 820 147 840 154C860 161 880 171 890 176L900 181L900 143L890 142C880 141 860 139 840 130C820 121 800 105 780 114C760 123 740 157 720 179C700 201 680 211 660 207C640 203 620 185 600 188C580 191 560 215 540 213C520 211 500 183 480 161C460 139 440 123 420 129C400 135 380 163 360 175C340 187 320 183 300 168C280 153 260 127 240 126C220 125 200 149 180 159C160 169 140 165 120 166C100 167 80 173 60 170C40 167 20 155 10 149L0 143Z" fill="#76a2ef"></path><path d="M0 235L10 226C20 217 40 199 60 195C80 191 100 201 120 217C140 233 160 255 180 256C200 257 220 237 240 228C260 219 280 221 300 224C320 227 340 231 360 225C380 219 400 203 420 196C440 189 460 191 480 207C500 223 520 253 540 266C560 279 580 275 600 270C620 265 640 259 660 260C680 261 700 269 720 257C740 245 760 213 780 202C800 191 820 201 840 213C860 225 880 239 890 246L900 253L900 179L890 174C880 169 860 159 840 152C820 145 800 141 780 156C760 171 740 205 720 222C700 239 680 239 660 230C640 221 620 203 600 210C580 217 560 249 540 249C520 249 500 217 480 194C460 171 440 157 420 158C400 159 380 175 360 185C340 195 320 199 300 190C280 181 260 159 240 160C220 161 200 185 180 190C160 195 140 181 120 176C100 171 80 175 60 175C40 175 20 171 10 169L0 167Z" fill="#6b99f0"></path><path d="M0 253L10 250C20 247 40 241 60 240C80 239 100 243 120 259C140 275 160 303 180 298C200 293 220 255 240 247C260 239 280 261 300 265C320 269 340 255 360 243C380 231 400 221 420 213C440 205 460 199 480 216C500 233 520 273 540 294C560 315 580 317 600 315C620 313 640 307 660 304C680 301 700 301 720 288C740 275 760 249 780 238C800 227 820 231 840 237C860 243 880 251 890 255L900 259L900 251L890 244C880 237 860 223 840 211C820 199 800 189 780 200C760 211 740 243 720 255C700 267 680 259 660 258C640 257 620 263 600 268C580 273 560 277 540 264C520 251 500 221 480 205C460 189 440 187 420 194C400 201 380 217 360 223C340 229 320 225 300 222C280 219 260 217 240 226C220 235 200 255 180 254C160 253 140 231 120 215C100 199 80 189 60 193C40 197 20 215 10 224L0 233Z" fill="#6190f0"></path><path d="M0 271L10 294C20 317 40 363 60 364C80 365 100 321 120 324C140 327 160 377 180 377C200 377 220 327 240 329C260 331 280 385 300 392C320 399 340 359 360 356C380 353 400 387 420 367C440 347 460 273 480 266C500 259 520 319 540 358C560 397 580 415 600 405C620 395 640 357 660 344C680 331 700 343 720 346C740 349 760 343 780 338C800 333 820 329 840 325C860 321 880 317 890 315L900 313L900 257L890 253C880 249 860 241 840 235C820 229 800 225 780 236C760 247 740 273 720 286C700 299 680 299 660 302C640 305 620 311 600 313C580 315 560 313 540 292C520 271 500 231 480 214C460 197 440 203 420 211C400 219 380 229 360 241C340 253 320 267 300 263C280 259 260 237 240 245C220 253 200 291 180 296C160 301 140 273 120 257C100 241 80 237 60 238C40 239 20 245 10 248L0 251Z" fill="#5886f0"></path><path d="M0 307L10 325C20 343 40 379 60 378C80 377 100 339 120 344C140 349 160 397 180 397C200 397 220 349 240 350C260 351 280 401 300 409C320 417 340 383 360 385C380 387 400 425 420 409C440 393 460 323 480 309C500 295 520 337 540 367C560 397 580 415 600 409C620 403 640 373 660 365C680 357 700 371 720 376C740 381 760 377 780 367C800 357 820 341 840 338C860 335 880 345 890 350L900 355L900 311L890 313C880 315 860 319 840 323C820 327 800 331 780 336C760 341 740 347 720 344C700 341 680 329 660 342C640 355 620 393 600 403C580 413 560 395 540 356C520 317 500 257 480 264C460 271 440 345 420 365C400 385 380 351 360 354C340 357 320 397 300 390C280 383 260 329 240 327C220 325 200 375 180 375C160 375 140 325 120 322C100 319 80 363 60 362C40 361 20 315 10 292L0 269Z" fill="#507def"></path><path d="M0 349L10 366C20 383 40 417 60 412C80 407 100 363 120 370C140 377 160 435 180 439C200 443 220 393 240 388C260 383 280 423 300 425C320 427 340 391 360 392C380 393 400 431 420 417C440 403 460 337 480 322C500 307 520 343 540 375C560 407 580 435 600 431C620 427 640 391 660 382C680 373 700 391 720 396C740 401 760 393 780 381C800 369 820 353 840 355C860 357 880 377 890 387L900 397L900 353L890 348C880 343 860 333 840 336C820 339 800 355 780 365C760 375 740 379 720 374C700 369 680 355 660 363C640 371 620 401 600 407C580 413 560 395 540 365C520 335 500 293 480 307C460 321 440 391 420 407C400 423 380 385 360 383C340 381 320 415 300 407C280 399 260 349 240 348C220 347 200 395 180 395C160 395 140 347 120 342C100 337 80 375 60 376C40 377 20 341 10 323L0 305Z" fill="#4973ee"></path><path d="M0 349L10 370C20 391 40 433 60 431C80 429 100 383 120 392C140 401 160 465 180 468C200 471 220 413 240 404C260 395 280 435 300 441C320 447 340 419 360 423C380 427 400 463 420 450C440 437 460 375 480 355C500 335 520 357 540 382C560 407 580 435 600 433C620 431 640 399 660 396C680 393 700 419 720 424C740 429 760 413 780 399C800 385 820 373 840 380C860 387 880 413 890 426L900 439L900 395L890 385C880 375 860 355 840 353C820 351 800 367 780 379C760 391 740 399 720 394C700 389 680 371 660 380C640 389 620 425 600 429C580 433 560 405 540 373C520 341 500 305 480 320C460 335 440 401 420 415C400 429 380 391 360 390C340 389 320 425 300 423C280 421 260 381 240 386C220 391 200 441 180 437C160 433 140 375 120 368C100 361 80 405 60 410C40 415 20 381 10 364L0 347Z" fill="#4469ec"></path><path d="M0 517L10 518C20 519 40 521 60 523C80 525 100 527 120 540C140 553 160 577 180 583C200 589 220 577 240 566C260 555 280 545 300 550C320 555 340 575 360 581C380 587 400 579 420 565C440 551 460 531 480 532C500 533 520 555 540 568C560 581 580 585 600 577C620 569 640 549 660 551C680 553 700 577 720 580C740 583 760 565 780 554C800 543 820 539 840 536C860 533 880 531 890 530L900 529L900 437L890 424C880 411 860 385 840 378C820 371 800 383 780 397C760 411 740 427 720 422C700 417 680 391 660 394C640 397 620 429 600 431C580 433 560 405 540 380C520 355 500 333 480 353C460 373 440 435 420 448C400 461 380 425 360 421C340 417 320 445 300 439C280 433 260 393 240 402C220 411 200 469 180 466C160 463 140 399 120 390C100 381 80 427 60 429C40 431 20 389 10 368L0 347Z" fill="#425ee9"></path><path d="M0 601L10 601C20 601 40 601 60 601C80 601 100 601 120 601C140 601 160 601 180 601C200 601 220 601 240 601C260 601 280 601 300 601C320 601 340 601 360 601C380 601 400 601 420 601C440 601 460 601 480 601C500 601 520 601 540 601C560 601 580 601 600 601C620 601 640 601 660 601C680 601 700 601 720 601C740 601 760 601 780 601C800 601 820 601 840 601C860 601 880 601 890 601L900 601L900 527L890 528C880 529 860 531 840 534C820 537 800 541 780 552C760 563 740 581 720 578C700 575 680 551 660 549C640 547 620 567 600 575C580 583 560 579 540 566C520 553 500 531 480 530C460 529 440 549 420 563C400 577 380 585 360 579C340 573 320 553 300 548C280 543 260 553 240 564C220 575 200 587 180 581C160 575 140 551 120 538C100 525 80 523 60 521C40 519 20 517 10 516L0 515Z" fill="#4153e6"></path></svg>